# xmcd
#
# Track frame offsets: 
#        182
#        19685
#        36567
#        51132
#        64680
#        79120
#        100065
#        123802
#        137945
#        155495
#        167810
#        180142
#        196952
#        216500
#        229612
#        243682
#        256140
#
# Disc length: 3658 seconds
#
# Revision: 0
# Processed by: cddbd v1.5.2PL0 Copyright (c) Steve Scherf et al.
# Submitted via: ExactAudioCopyFreeDBPlugin 1.0
#
DISCID=e60e4811
DTITLE=Jacques Brel - 60 Minutes de Musique
DYEAR=2000
DGENRE=Pop
TTITLE0=Orly
TTITLE1=Viellir
TTITLE2=Jojo
TTITLE3=amsterdam
TTITLE4=Je ne sais pas
TTITLE5=Regarde mon petit
TTITLE6=Fernand
TTITLE7=Vesoul
TTITLE8=Les marquises
TTITLE9=Le plat Pays
TTITLE10=Tango funèbre
TTITLE11=Un enfant
TTITLE12=L'éclusier
TTITLE13=Le gaz
TTITLE14=Au suivant
TTITLE15=Les bergers
TTITLE16=J'aimais
EXTD=
EXTT0=
EXTT1=
EXTT2=
EXTT3=
EXTT4=
EXTT5=
EXTT6=
EXTT7=
EXTT8=
EXTT9=
EXTT10=
EXTT11=
EXTT12=
EXTT13=
EXTT14=
EXTT15=
EXTT16=
PLAYORDER=
